<svg xmlns="http://www.w3.org/2000/svg" class="icon" style="width: 1em; height: 1em; overflow: hidden; font-size: 16px; vertical-align: middle; fill: currentColor;" viewBox="0 0 1024 1024" t="1534939750668" p-id="6467" version="1.1" data-spm-anchor-id="a313x.7781069.0.i10"><path fill="#ffffff" d="M 841.143 1024 H 694.857 v -73.143 h 146.286 c 60.599 0 109.714 -49.115 109.714 -109.714 V 694.857 H 1024 v 146.286 C 1024 942.117 942.117 1024 841.143 1024 Z m 146.286 -475.429 H 36.57 C 16.384 548.571 0 532.187 0 512 c 0 -20.187 16.384 -36.571 36.571 -36.571 H 987.43 c 20.187 0 36.571 16.384 36.571 36.571 c 0 20.187 -16.384 36.571 -36.571 36.571 Z m -36.572 -365.714 c 0 -60.599 -49.115 -109.714 -109.714 -109.714 H 694.857 V 0 h 146.286 C 942.117 0 1024 81.883 1024 182.857 v 146.286 h -73.143 V 182.857 Z m -877.714 0 v 146.286 H 0 V 182.857 C 0 81.883 81.883 0 182.857 0 h 146.286 v 73.143 H 182.857 c -60.599 0 -109.714 49.115 -109.714 109.714 Z m 0 658.286 c 0 60.599 49.115 109.714 109.714 109.714 h 146.286 V 1024 H 182.857 C 81.883 1024 0 942.117 0 841.143 V 694.857 h 73.143 v 146.286 Z" p-id="6468" /></svg>