<svg xmlns="http://www.w3.org/2000/svg" class="icon" style="width: 1em; height: 1em; overflow: hidden; font-size: 16px; vertical-align: middle; fill: currentColor;" viewBox="0 0 1024 1024" t="1534939954135" p-id="11321" version="1.1" data-spm-anchor-id="a313x.7781069.0.i26"><path fill="#ffffff" d="M 618.52 429.418 c 13.2713 0 20.2563 -0.348947 29.3361 -1.39681 c -1.04787 9.08082 -1.39681 17.1127 -1.39681 33.1776 l 0 67.0521 c 10.4766 -0.348947 18.1596 -0.698918 26.5415 -2.09573 l 0 23.0489 c -10.1266 -1.39681 -19.9054 -2.09573 -33.8755 -2.09573 l -69.8468 0 c 12.2234 21.6521 20.6053 32.1287 34.5744 45.0511 c 20.6043 19.2085 41.5575 31.0809 74.7351 42.2574 c -5.93722 8.38088 -8.03295 12.5713 -11.8744 22.7 c -29.6851 -13.6202 -48.5436 -25.1447 -67.0521 -41.2096 c -18.1596 -16.0649 -33.1776 -34.9234 -44.3521 -55.1787 c -6.63512 17.8096 -17.8106 34.9224 -32.4787 49.9404 c -18.1596 18.5085 -41.2096 32.4777 -74.3862 46.0989 c -3.84149 -9.08082 -6.63512 -13.6212 -13.6202 -20.2563 c 36.6692 -12.5723 59.0202 -25.1437 77.5298 -44.0032 c 12.5723 -12.9213 20.9542 -26.5415 27.2394 -45.4 l -52.0351 0 c -13.9692 0 -24.0978 0.698918 -33.8755 2.09573 l 0 -23.0489 c 6.28719 1.04787 14.3181 1.74678 21.3032 2.09573 l 0 -65.6553 c 0 -12.9213 -0.349971 -20.9542 -0.698918 -30.7319 c -6.98509 6.28617 -9.0798 8.03193 -16.0649 13.6202 c -4.54041 -6.98407 -8.38088 -10.4766 -15.366 -14.6681 c 1.39579 -1.04684 1.39579 -1.04684 2.44468 -1.74576 c -4.19146 -0.698918 -10.8266 -1.04787 -18.5096 -1.04787 l -9.0798 0 l 0 63.2106 c 13.2713 -6.28617 19.2085 -9.77871 33.5266 -18.8585 l 1.04684 20.9542 c -11.5245 6.98509 -22.3511 13.2713 -34.5734 19.5564 l 0 114.898 c 0 19.5564 -6.63512 24.4458 -31.7808 24.4458 c -7.68298 0 -14.3181 -0.348947 -24.0968 -1.04684 c -0.698918 -8.03295 -1.74678 -13.2713 -4.54041 -21.6521 c 10.8256 1.74576 20.9542 2.79363 28.9862 2.79363 c 8.03193 0 9.77871 -1.39681 9.77871 -7.68401 l 0 -101.278 c -33.5266 14.3191 -33.5266 14.3191 -37.717 16.7638 l -6.28617 -23.3979 c 15.017 -3.49254 22.7 -5.93722 44.0032 -15.367 l 0 -73.3393 l -17.1127 0 c -9.0798 0 -14.3181 0.349971 -22.701 1.39681 l 0 -22.7 c 7.68401 1.39681 12.9223 1.74576 22.701 1.74576 l 17.1127 0 l 0 -33.1766 c 0 -16.0649 -0.698918 -25.1447 -2.09573 -35.2734 l 25.8436 0 c -1.39681 9.42977 -2.09573 18.5096 -2.09573 35.2734 l 0 33.1766 l 9.0798 0 c 9.0798 0 13.9692 -0.348947 19.9064 -1.39681 l 0 20.9542 c 1.39681 -0.697895 1.39681 -0.697895 2.44468 -1.74576 c 33.1776 -23.7479 61.8138 -61.4639 68.7979 -90.8 l 24.4468 4.54041 c -2.09573 3.49254 -2.79363 5.2383 -3.84149 7.33404 c -2.79363 5.58827 -4.88936 9.0798 -8.03295 14.3181 l 47.1468 0 c 13.6202 0 20.2553 -0.348947 25.8426 -1.04684 l 10.4766 11.5245 c -1.04684 1.39681 -1.04684 1.39681 -4.19044 5.93722 c -1.39681 1.74678 -1.39681 2.09573 -5.58827 9.08082 c -10.4766 16.7628 -19.2085 28.2883 -30.7319 42.2564 L 618.52 429.42 Z M 549.023 429.418 c 14.3181 -16.4138 26.5425 -33.1766 35.6223 -49.5904 l -64.9574 0 c -13.9692 20.9542 -22.3511 30.7319 -41.9085 48.8915 c 6.28719 0.349971 15.018 0.698918 24.7957 0.698918 L 549.023 429.418 Z M 544.482 528.251 c 3.84149 -22.0021 4.88936 -41.2096 4.88936 -80.3234 l -54.4808 0 l 0 80.3234 L 544.482 528.251 Z M 569.976 447.928 c 0 31.7808 -1.74576 53.7819 -5.93722 80.3234 l 62.5128 0 l 0 -80.3234 L 569.976 447.928 Z" p-id="11322" /><path fill="#ffffff" d="M 512.015 896.341 c -51.8806 0 -102.216 -10.1635 -149.606 -30.206 c -45.7704 -19.3589 -86.8736 -47.067 -122.167 -82.3598 c -35.2959 -35.2918 -63.0091 -76.3929 -82.368 -122.161 c -20.0466 -47.3883 -30.209 -97.7237 -30.209 -149.604 s 10.1635 -102.216 30.209 -149.606 c 19.3589 -45.7694 47.0711 -86.8736 82.3659 -122.168 c 35.2959 -35.2949 76.399 -63.008 122.168 -82.3669 c 47.3914 -20.0466 97.7268 -30.209 149.607 -30.209 c 51.8786 0 102.211 10.1635 149.599 30.209 c 45.7663 19.3589 86.8664 47.0721 122.158 82.3669 s 62.9998 76.399 82.3577 122.168 c 20.0435 47.3914 30.206 97.7257 30.206 149.606 s -10.1625 102.217 -30.206 149.604 c -19.3579 45.7674 -47.0659 86.8685 -82.3587 122.161 c -35.2908 35.2918 -76.3908 63.0009 -122.157 82.3598 C 614.227 886.178 563.893 896.341 512.015 896.341 Z M 512.015 148.6 c -97.0657 0 -188.326 37.8009 -256.965 106.442 c -68.6413 68.6413 -106.444 159.901 -106.444 256.967 s 37.802 188.322 106.443 256.956 s 159.899 106.433 256.967 106.433 c 97.0637 0 188.315 -37.7989 256.948 -106.433 c 68.6331 -68.6342 106.432 -159.89 106.432 -256.956 c 0 -97.0678 -37.7989 -188.326 -106.432 -256.967 C 700.328 186.402 609.076 148.6 512.015 148.6 Z" p-id="11323" /></svg>