<svg xmlns="http://www.w3.org/2000/svg" class="icon" style="width: 1em; height: 1em; overflow: hidden; font-size: 16px; vertical-align: middle; fill: currentColor;" viewBox="0 0 1024 1024" t="1534939973286" p-id="12174" version="1.1" data-spm-anchor-id="a313x.7781069.0.i32"><path fill="#ffffff" d="M 921.7 154.9 c 28.2 0 51.2 23 51.2 51.2 v 612 c 0 28.2 -23 51.2 -51.2 51.2 H 102.5 c -28.2 0 -51.2 -23 -51.2 -51.2 v -612 c 0 -28.2 23 -51.2 51.2 -51.2 h 819.2 m 0 -51.2 H 102.5 C 46 103.7 0.1 149.6 0.1 206.1 v 612 c 0 56.6 45.8 102.4 102.4 102.4 H 921.7 c 56.6 0 102.4 -45.8 102.4 -102.4 v -612 c 0 -56.5 -45.8 -102.4 -102.4 -102.4 Z" p-id="12175" /><path fill="#ffffff" d="M 925.8 257.3 h -88.4 l -76.8 204.8 H 849 l 76.8 -204.8 Z M 177.2 410.9 H 126 v 51.2 h 51.2 v -51.2 Z M 279.6 410.9 h -51.2 v 51.2 h 51.2 v -51.2 Z M 976.3 680.5 H 46.6 v 51.2 h 929.7 v -51.2 Z M 382 410.9 h -51.2 v 51.2 H 382 v -51.2 Z M 666.7 257.3 h -51.2 l -76.8 204.8 h 51.2 l 76.8 -204.8 Z M 767.3 257.3 h -51.2 l -76.8 204.8 h 51.2 l 76.8 -204.8 Z" p-id="12176" /></svg>