<svg xmlns="http://www.w3.org/2000/svg" class="icon" style="width: 1em; height: 1em; overflow: hidden; font-size: 16px; vertical-align: middle; fill: currentColor;" viewBox="0 0 1024 1024" t="1534939797294" p-id="7450" version="1.1" data-spm-anchor-id="a313x.7781069.0.i15"><path fill="#ffffff" d="M 826.09 861.946 c 0 53.4422 -43.3247 96.7649 -96.7649 96.7649 L 294.671 958.711 c -53.4391 0 -96.7618 -43.3227 -96.7618 -96.7649 L 197.909 162.053 c 0 -53.4391 43.3227 -96.7628 96.7618 -96.7628 l 434.655 0 c 53.4401 0 96.7649 43.3237 96.7649 96.7628 L 826.091 861.946 L 826.09 861.946 Z M 770.25 162.053 c 0 -22.6028 -18.3213 -40.9251 -40.9241 -40.9251 L 294.671 121.128 c -22.6018 0 -40.9241 18.3223 -40.9241 40.9251 l 0 699.893 c 0 22.6028 18.3223 40.9241 40.9241 40.9241 l 434.655 0 c 22.6028 0 40.9241 -18.3213 40.9241 -40.9241 L 770.25 162.053 L 770.25 162.053 Z" p-id="7451" /><path fill="#ffffff" d="M 797.53 777.233 L 225.188 777.233 c -7.71675 0 -13.9599 -6.24421 -13.9599 -13.9589 c 0 -7.71675 6.24421 -13.961 13.9599 -13.961 l 572.341 0 c 7.7014 0 13.961 6.24421 13.961 13.961 C 811.49 770.99 805.232 777.233 797.53 777.233 Z" p-id="7452" /><path fill="#ffffff" d="M 797.53 218.845 L 225.188 218.845 c -7.71675 0 -13.9599 -6.24319 -13.9599 -13.9589 c 0 -7.71675 6.24421 -13.961 13.9599 -13.961 l 572.341 0 c 7.7014 0 13.961 6.24421 13.961 13.961 C 811.49 212.602 805.232 218.845 797.53 218.845 Z" p-id="7453" /><path fill="#ffffff" d="M 546.898 836.563 c 0 13.4954 -10.9463 24.4294 -24.4294 24.4294 l -6.97895 0 c -13.4831 0 -24.4304 -10.9351 -24.4304 -24.4294 l 0 -6.981 c 0 -13.4954 10.9473 -24.4294 24.4304 -24.4294 l 6.97895 0 c 13.4831 0 24.4294 10.9371 24.4294 24.4294 L 546.898 836.563 Z" p-id="7454" /><path fill="#ffffff" d="M 575.09 466.872 c -1.52677 0 -3.09448 -0.24457 -4.6233 -0.789992 c -7.27775 -2.54906 -11.0967 -10.5237 -8.54768 -17.8035 l 3.79033 -10.7826 c 2.56236 -7.2665 10.4971 -11.1377 17.8014 -8.53437 c 7.26752 2.54906 11.0988 10.5237 8.53437 17.8035 l -3.78828 10.7826 C 586.24 463.287 580.856 466.872 575.09 466.872 Z" p-id="7455" /><path fill="#ffffff" d="M 521.869 618.443 c -1.52677 0 -3.09448 -0.2415 -4.6233 -0.787946 c -7.2798 -2.5378 -11.0967 -10.5247 -8.54768 -17.7759 l 39.5886 -112.749 c 2.54906 -7.27878 10.5104 -11.151 17.8045 -8.54768 c 7.26547 2.54906 11.0967 10.5247 8.53335 17.7902 l -39.5886 112.748 C 533.02 614.875 527.636 618.443 521.869 618.443 Z" p-id="7456" /><path fill="#ffffff" d="M 465.295 513.175 c -1.52677 0 -3.0955 -0.24457 -4.6233 -0.789992 c -7.27878 -2.53575 -11.0967 -10.5237 -8.54768 -17.782 l 57.8823 -164.883 c 2.53678 -7.2931 10.5104 -11.1377 17.7912 -8.54768 c 7.27775 2.54906 11.0978 10.5247 8.5487 17.7902 l -57.8823 164.89 C 476.459 509.603 471.061 513.175 465.295 513.175 Z" p-id="7457" /><path fill="#ffffff" d="M 438.112 590.523 c -1.52677 0 -3.09346 -0.2415 -4.62125 -0.787946 c -7.2798 -2.5378 -11.0967 -10.5227 -8.5487 -17.8035 l 8.52005 -24.2114 c 2.54906 -7.27878 10.4971 -11.1223 17.7902 -8.53437 c 7.27878 2.53678 11.0978 10.5247 8.5487 17.8035 l -8.52005 24.2114 C 449.263 586.956 443.88 590.523 438.112 590.523 Z" p-id="7458" /></svg>