<svg xmlns="http://www.w3.org/2000/svg" class="icon" style="width: 1em; height: 1em; overflow: hidden; font-size: 16px; vertical-align: middle; fill: currentColor;" viewBox="0 0 1024 1024" t="1534939887861" p-id="10449" version="1.1" data-spm-anchor-id="a313x.7781069.0.i22"><path fill="#ffffff" d="M 831.296 0 L 437.483 0 L 102.827 281.301 l 0 651.648 c 0 49.6 40.2347 89.856 89.8773 89.856 l 638.592 0 c 49.6213 0 89.8773 -40.256 89.8773 -89.856 L 921.173 89.856 C 921.173 40.2347 880.939 0 831.296 0 Z M 818.816 920.448 L 205.184 920.448 L 205.184 327.552 L 472.896 102.379 l 345.899 0 L 818.795 920.448 Z" p-id="10450" /><path fill="#ffffff" d="M 441.493 448.704 l -38.6133 0 c -16.6187 0 -30.08 -13.4613 -30.08 -30.08 L 372.8 207.595 c 0 -16.5973 13.4613 -30.08 30.08 -30.08 l 38.6133 0 c 16.6187 0 30.1013 13.4827 62.8693 30.08 l 0 211.029 C 471.595 435.243 458.112 448.704 441.493 448.704 Z" p-id="10451" /><path fill="#ffffff" d="M 613.483 448.704 l -38.592 0 c -16.64 0 -30.1013 -13.4613 -30.1013 -30.08 L 544.789 207.595 c 0 -16.5973 13.4613 -30.08 30.1013 -30.08 l 38.592 0 c 16.6187 0 30.08 13.4827 30.08 30.08 l 0 211.029 C 643.563 435.243 630.08 448.704 613.483 448.704 Z" p-id="10452" /><path fill="#ffffff" d="M 719.872 448.704 l -38.592 0 c -16.64 0 -30.1013 -13.4613 -30.1013 -30.08 L 651.179 207.595 c 0 -16.5973 13.4613 -30.08 30.1013 -30.08 l 38.592 0 c 16.6187 0 30.1013 13.4827 30.1013 30.08 l 0 211.029 C 749.973 435.243 736.491 448.704 719.872 448.704 Z" p-id="10453" /></svg>