<svg xmlns="http://www.w3.org/2000/svg" class="icon" style="width: 1em; height: 1em; overflow: hidden; font-size: 16px; vertical-align: middle; fill: currentColor;" viewBox="0 0 1024 1024" t="1534939695873" p-id="4762" version="1.1" data-spm-anchor-id="a313x.7781069.0.i6"><path fill="#ffffff" d="M 841.403 1024 L 184.718 1024 c -86.0167 0 -155.99 -68.9258 -155.99 -153.665 L 28.7276 402.748 c 0 -84.7138 69.9732 -153.665 155.99 -153.665 l 656.66 0 c 86.0167 0 155.99 68.9258 155.99 153.665 l 0 467.587 C 997.393 955.074 927.42 1024 841.403 1024 Z M 184.718 300.177 c -57.8384 0 -104.896 46.0101 -104.896 102.571 l 0 467.587 c 0 56.561 47.0576 102.571 104.896 102.571 l 656.66 0 c 57.8639 0 104.896 -46.0101 104.896 -102.571 L 946.273 402.748 c 0 -56.561 -47.0576 -102.571 -104.896 -102.571 L 184.718 300.177 Z" p-id="4763" /><path fill="#ffffff" d="M 488.573 222.744 l 46.8276 0 l 0 789.555 l -46.8276 0 l 0 -789.555 Z" p-id="4764" /><path fill="#ffffff" d="M 54.2746 613.153 l 917.571 0 l 0 46.8021 l -917.571 0 l 0 -46.8021 Z" p-id="4765" /><path fill="#ffffff" d="M 376.805 300.177 c -89.2101 0 -161.789 -67.1886 -161.789 -149.808 c 0 -82.5934 72.579 -149.782 161.789 -149.782 s 161.789 67.1886 161.789 149.782 C 538.62 232.989 466.041 300.177 376.805 300.177 Z M 376.805 51.6816 c -61.0318 0 -110.695 44.2729 -110.695 98.688 s 49.6633 98.7136 110.695 98.7136 s 110.695 -44.2729 110.695 -98.7136 S 437.863 51.6816 376.805 51.6816 Z" p-id="4766" /><path fill="#ffffff" d="M 649.315 300.177 c -89.2101 0 -161.789 -67.1886 -161.789 -149.808 c 0 -82.5934 72.579 -149.782 161.789 -149.782 c 89.1845 0 161.764 67.1886 161.764 149.782 C 811.079 232.989 738.5 300.177 649.315 300.177 Z M 649.315 51.6816 c -61.0573 0 -110.721 44.2729 -110.721 98.688 s 49.6633 98.7136 110.721 98.7136 c 61.0318 0 110.67 -44.2729 110.67 -98.7136 S 710.347 51.6816 649.315 51.6816 Z" p-id="4767" /></svg>